<svg xmlns="http://www.w3.org/2000/svg" viewBox="0 0 100 100">
  <defs>
    <linearGradient id="grad1" x1="0%" y1="0%" x2="100%" y2="100%">
      <stop offset="0%" style="stop-color:#9333ea;stop-opacity:1" />
      <stop offset="100%" style="stop-color:#3b82f6;stop-opacity:1" />
    </linearGradient>
  </defs>
  
  <!-- Background circle -->
  <circle cx="50" cy="50" r="48" fill="url(#grad1)"/>
  
  <!-- AI Brain/Neural Network Icon -->
  <g fill="white" opacity="0.95">
    <!-- Central node -->
    <circle cx="50" cy="50" r="8"/>
    
    <!-- Connected nodes -->
    <circle cx="30" cy="30" r="5"/>
    <circle cx="70" cy="30" r="5"/>
    <circle cx="30" cy="70" r="5"/>
    <circle cx="70" cy="70" r="5"/>
    <circle cx="50" cy="20" r="5"/>
    <circle cx="50" cy="80" r="5"/>
    
    <!-- Connection lines -->
    <line x1="50" y1="50" x2="30" y2="30" stroke="white" stroke-width="2" opacity="0.6"/>
    <line x1="50" y1="50" x2="70" y2="30" stroke="white" stroke-width="2" opacity="0.6"/>
    <line x1="50" y1="50" x2="30" y2="70" stroke="white" stroke-width="2" opacity="0.6"/>
    <line x1="50" y1="50" x2="70" y2="70" stroke="white" stroke-width="2" opacity="0.6"/>
    <line x1="50" y1="50" x2="50" y2="20" stroke="white" stroke-width="2" opacity="0.6"/>
    <line x1="50" y1="50" x2="50" y2="80" stroke="white" stroke-width="2" opacity="0.6"/>
    
    <!-- Additional connections for neural network effect -->
    <line x1="30" y1="30" x2="50" y2="20" stroke="white" stroke-width="1.5" opacity="0.4"/>
    <line x1="70" y1="30" x2="50" y2="20" stroke="white" stroke-width="1.5" opacity="0.4"/>
    <line x1="30" y1="70" x2="50" y2="80" stroke="white" stroke-width="1.5" opacity="0.4"/>
    <line x1="70" y1="70" x2="50" y2="80" stroke="white" stroke-width="1.5" opacity="0.4"/>
  </g>
</svg>

